<?xml version="1.0" encoding="UTF-8"?>
<svg width="48px" height="190px" viewBox="0 0 48 190" version="1.1" xmlns="http://www.w3.org/2000/svg" xmlns:xlink="http://www.w3.org/1999/xlink">
    <!-- Generator: Sketch 53.2 (72643) - https://sketchapp.com -->
    <title>Group</title>
    <desc>Created with Sketch.</desc>
    <g id="Page-1" stroke="none" stroke-width="1" fill="none" fill-rule="evenodd">
        <g id="iPhone-XS" transform="translate(-307.000000, -73.000000)">
            <g id="Group" transform="translate(307.000000, 73.000000)">
                <g id="箭头" transform="translate(24.500000, 182.500000) rotate(90.000000) translate(-24.500000, -182.500000) translate(17.000000, 174.000000)" fill-rule="nonzero">
                    <path d="M3.50253117,15.6533393 C2.1265519,16.4655213 1.00067056,15.8011263 1.00059391,14.1768797 L1,1.82325253 C0.999923369,0.199025596 2.12572808,-0.465506551 3.50180314,0.346557947 L13.9679054,6.52286236 C15.3439804,7.33490728 15.3440379,8.66383446 13.9680395,9.47601647 L3.50253117,15.6533393 Z" id="Path" fill="#FF807D"></path>
                    <path d="M1.97001388,17 C0.792032587,17 0.000585552871,16.0310278 0.000585552871,14.5889301 L-1.42108547e-14,2.40187101 C-1.42108547e-14,1.71117498 0.177174127,1.11992262 0.513124985,0.692258737 C1.14143204,-0.108642627 2.26913215,-0.232604287 3.36466515,0.41471674 L13.6831504,6.50771494 C14.5199299,7.0017648 15,7.72596294 15,8.49456008 C15,9.26315722 14.5202132,9.9874906 13.6831504,10.4818496 L3.36521292,16.5759104 C2.88893939,16.8573359 2.41939017,17 1.97001388,17 Z M1.96942833,1.21563742 C1.74635515,1.21563742 1.57560311,1.29533534 1.44695353,1.45923293 C1.28615572,1.66409042 1.19754978,1.99889899 1.19754978,2.40173577 L1.19813533,14.5889301 C1.19813533,14.945571 1.27327378,15.7750284 1.97001388,15.7750284 C2.20304131,15.7750284 2.47845452,15.6851678 2.76644747,15.5151455 L13.0843661,9.42110401 C13.5407689,9.15150283 13.8024313,8.81385411 13.8024313,8.49459873 C13.8024313,8.17549789 13.54075,7.83800374 13.0843661,7.5685378 L2.76584305,1.47552029 C2.47786899,1.30549804 2.20243688,1.21563742 1.96942833,1.21563742 Z" id="Shape" fill="#FF5543"></path>
                    <path d="M3.83904905,14.5 C3.72625385,14.5 3.61576671,14.4385681 3.55159014,14.3265056 C3.45234404,14.1537328 3.5006421,13.9261858 3.65910673,13.8180806 L6.98164974,11.5561352 C7.14043494,11.44803 7.3495057,11.5008256 7.44840986,11.6735984 C7.54765596,11.8463712 7.4993579,12.0739182 7.34089325,12.1820234 L4.01835024,14.4439687 C3.96459659,14.4806085 3.90245974,14.5000261 3.83904905,14.5 L3.83904905,14.5 Z" id="Path" fill="#FFFFFF"></path>
                    <path d="M7.27467929,11.9999997 C7.18760075,11.9999997 7.10214919,11.9522753 7.04882203,11.8630533 C6.96255698,11.7184741 6.99362556,11.5201246 7.11821138,11.4199958 L7.56938936,11.0570012 C7.69316171,10.9564305 7.86463599,10.9924849 7.95117797,11.1372248 C8.03744302,11.281804 8.00637444,11.4801535 7.8817886,11.5802823 L7.43061064,11.9432768 C7.38487056,11.9802813 7.33043721,12.0000824 7.27467929,11.9999997 Z" id="Path" fill="#FFFFFF"></path>
                </g>
                <g id="箭头" transform="translate(24.500000, 7.500000) scale(1, -1) rotate(90.000000) translate(-24.500000, -7.500000) translate(17.000000, -1.000000)" fill-rule="nonzero">
                    <path d="M3.50253117,15.6533393 C2.1265519,16.4655213 1.00067056,15.8011263 1.00059391,14.1768797 L1,1.82325253 C0.999923369,0.199025596 2.12572808,-0.465506551 3.50180314,0.346557947 L13.9679054,6.52286236 C15.3439804,7.33490728 15.3440379,8.66383446 13.9680395,9.47601647 L3.50253117,15.6533393 Z" id="Path" fill="#A4D561"></path>
                    <path d="M1.97001388,17 C0.792032587,17 0.000585552871,16.0310278 0.000585552871,14.5889301 L0,2.40187101 C0,1.71117498 0.177174127,1.11992262 0.513124985,0.692258737 C1.14143204,-0.108642627 2.26913215,-0.232604287 3.36466515,0.41471674 L13.6831504,6.50771494 C14.5199299,7.0017648 15,7.72596294 15,8.49456008 C15,9.26315722 14.5202132,9.9874906 13.6831504,10.4818496 L3.36521292,16.5759104 C2.88893939,16.8573359 2.41939017,17 1.97001388,17 Z M1.96942833,1.21563742 C1.74635515,1.21563742 1.57560311,1.29533534 1.44695353,1.45923293 C1.28615572,1.66409042 1.19754978,1.99889899 1.19754978,2.40173577 L1.19813533,14.5889301 C1.19813533,14.945571 1.27327378,15.7750284 1.97001388,15.7750284 C2.20304131,15.7750284 2.47845452,15.6851678 2.76644747,15.5151455 L13.0843661,9.42110401 C13.5407689,9.15150283 13.8024313,8.81385411 13.8024313,8.49459873 C13.8024313,8.17549789 13.54075,7.83800374 13.0843661,7.5685378 L2.76584305,1.47552029 C2.47786899,1.30549804 2.20243688,1.21563742 1.96942833,1.21563742 Z" id="Shape" fill="#8ABF00"></path>
                    <path d="M3.83904905,14.5 C3.72625385,14.5 3.61576671,14.4385681 3.55159014,14.3265056 C3.45234404,14.1537328 3.5006421,13.9261858 3.65910673,13.8180806 L6.98164974,11.5561352 C7.14043494,11.44803 7.3495057,11.5008256 7.44840986,11.6735984 C7.54765596,11.8463712 7.4993579,12.0739182 7.34089325,12.1820234 L4.01835024,14.4439687 C3.96459659,14.4806085 3.90245974,14.5000261 3.83904905,14.5 L3.83904905,14.5 Z" id="Path" fill="#FFFFFF"></path>
                    <path d="M7.27467929,11.9999997 C7.18760075,11.9999997 7.10214919,11.9522753 7.04882203,11.8630533 C6.96255698,11.7184741 6.99362556,11.5201246 7.11821138,11.4199958 L7.56938936,11.0570012 C7.69316171,10.9564305 7.86463599,10.9924849 7.95117797,11.1372248 C8.03744302,11.281804 8.00637444,11.4801535 7.8817886,11.5802823 L7.43061064,11.9432768 C7.38487056,11.9802813 7.33043721,12.0000824 7.27467929,11.9999997 Z" id="Path" fill="#FFFFFF"></path>
                </g>
                <path d="M24.5,49.5 L24.5,141.5" id="Line" stroke="#DEDBDB" stroke-width="3" stroke-dasharray="8"></path>
                <text id="最像我" font-family="PingFangSC-Regular, PingFang SC" font-size="12" font-weight="normal" fill="#838383">
                    <tspan x="7" y="34">最像我</tspan>
                </text>
                <text id="最不像我" font-family="PingFangSC-Regular, PingFang SC" font-size="12" font-weight="normal" fill="#838383">
                    <tspan x="0" y="163">最不像我</tspan>
                </text>
            </g>
        </g>
    </g>
</svg>