<?xml version="1.0" standalone="no"?><!DOCTYPE svg PUBLIC "-//W3C//DTD SVG 1.1//EN" "http://www.w3.org/Graphics/SVG/1.1/DTD/svg11.dtd"><svg t="1568559948671" class="icon" viewBox="0 0 1024 1024" version="1.1" xmlns="http://www.w3.org/2000/svg" p-id="3101" xmlns:xlink="http://www.w3.org/1999/xlink" width="200" height="200"><defs><style type="text/css"></style></defs><path d="M0 0h1024v1024H0z" fill="#D8D8D8" opacity=".038" p-id="3102"></path><path d="M384 192a64 64 0 1 1 0-128 64 64 0 0 1 0 128z m256 0a64 64 0 1 1 0-128 64 64 0 0 1 0 128zM384 448a64 64 0 1 1 0-128 64 64 0 0 1 0 128z m256 0a64 64 0 1 1 0-128 64 64 0 0 1 0 128zM384 704a64 64 0 1 1 0-128 64 64 0 0 1 0 128z m256 0a64 64 0 1 1 0-128 64 64 0 0 1 0 128zM384 960a64 64 0 1 1 0-128 64 64 0 0 1 0 128z m256 0a64 64 0 1 1 0-128 64 64 0 0 1 0 128z" p-id="3103" data-spm-anchor-id="a313x.7781069.0.i1" class="selected" fill="#cdcdcd"></path></svg>