<?xml version="1.0" standalone="no"?><!DOCTYPE svg PUBLIC "-//W3C//DTD SVG 1.1//EN" "http://www.w3.org/Graphics/SVG/1.1/DTD/svg11.dtd"><svg t="1568373149145" class="icon" viewBox="0 0 1024 1024" version="1.1" xmlns="http://www.w3.org/2000/svg" p-id="2164" xmlns:xlink="http://www.w3.org/1999/xlink" width="200" height="200"><defs><style type="text/css"></style></defs><path d="M704 277.3c0-23.6 19.1-42.7 42.7-42.7s42.7 19.1 42.7 42.7-19.1 42.7-42.7 42.7-42.7-19.1-42.7-42.7zM277.3 704c23.6 0 42.7 19.1 42.7 42.7s-19.1 42.7-42.7 42.7-42.7-19.1-42.7-42.7 19.1-42.7 42.7-42.7z m277.4 192c0-23.6 19.1-42.7 42.7-42.7 12.2 0 42.7 0.9 42.7 0.9V896c0 23.6-19.1 42.7-42.7 42.7s-42.7-19.1-42.7-42.7zM896 640c-23.6 0-42.7-19.1-42.7-42.7s19.1-42.7 42.7-42.7 42.7 19.1 42.7 42.7S919.6 640 896 640z m-298.7-85.3c23.6 0 42.7 19.1 42.7 42.7V640h-42.7c-23.6 0-42.7-19.1-42.7-42.7s19.1-42.6 42.7-42.6zM896 725.3c23.6 0 42.7 19.1 42.7 42.7v128c0 5.9-1.2 11.5-3.4 16.6 0 0.1-0.2 0.2-0.2 0.3-2.1 5-5.2 9.5-8.9 13.3-1.4 1.4-3.4 2.1-4.9 3.4-2.8 2-5.4 4.4-8.6 5.8-5.1 2.2-10.7 3.4-16.6 3.4H768c-23.6 0-42.7-19.1-42.7-42.7v-42.7h128V768c0-23.6 19.1-42.7 42.7-42.7z m-170.7-42.6v170.7l-85.3 0.9V640h42.7c23.6 0 42.6 19.1 42.6 42.7zM234.7 277.3c0-23.6 19.1-42.7 42.7-42.7s42.7 19.1 42.7 42.7-19.2 42.7-42.8 42.7c-23.6 0-42.6-19.1-42.6-42.7z" fill="#00A2FF" p-id="2165"></path><path d="M213.3 554.7h128c70.7 0 128 57.3 128 128v128c0 70.7-57.3 128-128 128h-128c-70.7 0-128-57.3-128-128v-128c0-70.7 57.3-128 128-128z m0 85.3c-23.6 0-42.7 19.1-42.7 42.7v128c0 23.6 19.1 42.7 42.7 42.7h128c23.6 0 42.7-19.1 42.7-42.7v-128c0-23.6-19.1-42.7-42.7-42.7h-128zM682.7 85.3h128c70.7 0 128 57.3 128 128v128c0 70.7-57.3 128-128 128h-128c-70.7 0-128-57.3-128-128v-128c0-70.7 57.3-128 128-128z m0 85.4c-23.6 0-42.7 19.1-42.7 42.7v128c0 23.6 19.1 42.7 42.7 42.7h128c23.6 0 42.7-19.1 42.7-42.7v-128c0-23.6-19.1-42.7-42.7-42.7h-128zM213.3 85.3h128c70.7 0 128 57.3 128 128v128c0 70.7-57.3 128-128 128h-128c-70.7 0-128-57.3-128-128v-128c0-70.7 57.3-128 128-128z m0 85.4c-23.6 0-42.7 19.1-42.7 42.7v128c0 23.6 19.1 42.7 42.7 42.7h128c23.6 0 42.7-19.1 42.7-42.7v-128c0-23.6-19.1-42.7-42.7-42.7h-128z" fill="#666666" p-id="2166"></path></svg>