<?xml version="1.0" standalone="no"?><!DOCTYPE svg PUBLIC "-//W3C//DTD SVG 1.1//EN" "http://www.w3.org/Graphics/SVG/1.1/DTD/svg11.dtd"><svg t="1568562473406" class="icon" viewBox="0 0 2080 1024" version="1.1" xmlns="http://www.w3.org/2000/svg" p-id="3349" xmlns:xlink="http://www.w3.org/1999/xlink" width="406.25" height="200"><defs><style type="text/css"></style></defs><path d="M1824 256v512H256v256h1824V256z" fill="#E9F2FE" p-id="3350"></path><path d="M1113.136 992h125.712v32h-125.712zM891.424 992h125.712v32h-125.712zM1334.864 992h125.712v32h-125.712zM448 992h125.712v32H448zM669.712 992h125.712v32h-125.712zM288 944h-32v80h96v-32h-64zM256 768h32v80h-32zM1556.576 992h125.712v32h-125.712zM2048 602.672h32v74.672h-32zM2048 432h32v74.672h-32zM2000 256v32h48v48h32v-80zM2048 773.328h32V848h-32zM1824 256h80v32h-80zM2048 992h-48v32h80v-80h-32zM1778.288 992H1904v32h-125.712z" fill="#2C82FC" p-id="3351"></path><path d="M1103.968 223.936v47.984h-31.936v-47.984H1024V192h48.032v-0.08h31.936V192H1104v31.936h-0.032zM720.032 192v-0.08h31.936V192H800v31.936h-48.032v47.984h-31.936v-47.984H720V192h0.032z m198.288 206.368h-6.368v-102.912a20.96 20.96 0 1 0-41.92 0v208.4l-63.456-64.096a32.016 32.016 0 0 0-31.824-8.176l-5.344 1.584 96.16 118.176v2.8l-20.832 21.952-101.024-127.072a28.64 28.64 0 0 1 11.216-44.176l6.88-2.928a47.968 47.968 0 0 1 50.432 8.112l24.848 21.808v-138.688a54.016 54.016 0 0 1 108.032 0v69.84h78.048a48 48 0 0 1 48 48v148.352h-36.016v-144.96a16 16 0 0 0-16-16h-100.832z" fill="#2C82FC" p-id="3352"></path><path d="M0 0h1824v768H0V0z m32 32v704h1760V32H32z" fill="#2C82FC" p-id="3353"></path></svg>